<?xml version="1.0" encoding="UTF-8"?>
<svg width="46px" height="46px" viewBox="0 0 46 46" version="1.1" xmlns="http://www.w3.org/2000/svg" xmlns:xlink="http://www.w3.org/1999/xlink">
    <!-- Generator: Sketch 52.6 (67491) - http://www.bohemiancoding.com/sketch -->
    <title>icon-large-world</title>
    <desc>Created with Sketch.</desc>
    <g id="Design" stroke="none" stroke-width="1" fill="none" fill-rule="evenodd" opacity="0.800000012">
        <g id="JUM---sluzbenik---lista-usluga---desktop" transform="translate(-563.000000, -255.000000)" stroke="#000000" stroke-width="2">
            <g id="icon-large-world" transform="translate(564.000000, 256.000000)">
                <path d="M5.4,36.5 C9.4,31.9 15.4,29 22,29 C28.6,29 34.5,31.9 38.5,36.5" id="Path"></path>
                <path d="M5.4,7.5 C9.4,12.1 15.4,15 22,15 C28.6,15 34.5,12.1 38.5,7.5" id="Path"></path>
                <path d="M22,44 C29.8,40.3 34,31.8 34,22 C34,12.2 29.8,3.7 22,0" id="Path"></path>
                <path d="M22,44 C14.2,40.3 10,31.8 10,22 C10,12.2 14.2,3.7 22,0" id="Path"></path>
                <polyline id="Path" points="22 44 22 42 22 2 22 0"></polyline>
                <path d="M0,22 L44,22" id="Path"></path>
                <circle id="Oval" stroke-linecap="square" cx="22" cy="22" r="22"></circle>
            </g>
        </g>
    </g>
</svg>