<?xml version="1.0" encoding="UTF-8"?>
<svg width="29px" height="26px" viewBox="0 0 29 26" version="1.1" xmlns="http://www.w3.org/2000/svg" xmlns:xlink="http://www.w3.org/1999/xlink">
    <!-- Generator: Sketch 52.6 (67491) - http://www.bohemiancoding.com/sketch -->
    <title>icon-large-users</title>
    <desc>Created with Sketch.</desc>
    <g id="Design" stroke="none" stroke-width="1" fill="none" fill-rule="evenodd" stroke-linecap="square">
        <g id="JUM---sluzbenik---izbor-posla" transform="translate(-598.000000, -193.000000)" stroke="#000000" stroke-width="2">
            <g id="icon-large-users" transform="translate(599.000000, 193.000000)">
                <path d="M21,25 L27.0000001,25 L27,19.562 C27.00032,18.6439774 26.375621,17.8436204 25.485,17.621 L21.652,16.163 C21.2576343,16.0642053 20.9623339,15.7364891 20.905,15.334 L20.493,13.453 C22.6279599,12.4777562 22.9982162,11.3471581 23,9 L23,6.252 C23.0514549,2.94597466 21.486087,1.18781813 18.185,1 C17.0694632,0.964060557 15.9661487,1.24118822 15,1.8" id="Path"></path>
                <path d="M16.549,19.586 L12.624,18.178 C12.2444332,18.0699022 11.963946,17.7486739 11.908,17.358 L11.493,15.453 C11.493,15.453 15.219,15.734 17,14 C15.5584016,12.0607319 14.8498815,10.6737278 15,8.262 C15.0459458,4.97739943 12.5162161,2.22986975 9.239,2.005 C7.60757645,1.93996334 6.02010183,2.54258473 4.84280305,3.67384073 C3.66550426,4.80509674 3.00006477,6.36728062 3,8 C3.19374961,10.4976142 2.48399867,11.9817425 1,14 C2.781,15.734 6.507,15.453 6.507,15.453 L6.092,17.358 C6.03605395,17.7486739 5.75556678,18.0699022 5.376,18.178 L1.451,19.586 C0.592238631,19.8311468 7.77866596e-05,20.6159334 -9.09494702e-13,21.509 L-9.09494702e-13,25 L18,25 L18,21.509 C17.9999222,20.6159334 17.4077614,19.8311468 16.549,19.586 Z" id="Path"></path>
            </g>
        </g>
    </g>
</svg>