<?xml version="1.0" encoding="UTF-8"?>
<svg width="46px" height="39px" viewBox="0 0 46 39" version="1.1" xmlns="http://www.w3.org/2000/svg" xmlns:xlink="http://www.w3.org/1999/xlink">
    <!-- Generator: Sketch 52.6 (67491) - http://www.bohemiancoding.com/sketch -->
    <title>icon-large-book</title>
    <desc>Created with Sketch.</desc>
    <g id="Design" stroke="none" stroke-width="1" fill="none" fill-rule="evenodd" opacity="0.800000012">
        <g id="JUM---sluzbenik---lista-usluga---desktop" transform="translate(-183.000000, -688.000000)" stroke="#000000" stroke-width="2">
            <g id="icon-large-book" transform="translate(184.000000, 689.000000)">
                <polyline id="Path" stroke-linecap="square" points="38 4 44 4 44 37 0 37 0 4 6 4"></polyline>
                <path d="M22,4 L22,20" id="Path"></path>
                <path d="M22,4 C19.958,2.042 15.917,0 6,0 C6,0 6,26.333 6,28 C15.958,28 20,30 22,32 C24,30.042 27.958,28 38,28 C38,25.917 38,1 38,0 C28,0 24,2 22,4 Z" id="Path" stroke-linecap="square"></path>
            </g>
        </g>
    </g>
</svg>