<?xml version="1.0" encoding="UTF-8"?>
<svg width="46px" height="46px" viewBox="0 0 46 46" version="1.1" xmlns="http://www.w3.org/2000/svg" xmlns:xlink="http://www.w3.org/1999/xlink">
    <!-- Generator: Sketch 52.6 (67491) - http://www.bohemiancoding.com/sketch -->
    <title>icon-large-car</title>
    <desc>Created with Sketch.</desc>
    <g id="Design" stroke="none" stroke-width="1" fill="none" fill-rule="evenodd" opacity="0.800000012">
        <g id="JUM---sluzbenik---lista-usluga---desktop" transform="translate(-1323.000000, -470.000000)" stroke="#000000" stroke-width="2">
            <g id="icon-large-car" transform="translate(1324.000000, 472.000000)">
                <polyline id="Path" stroke-linecap="square" points="10 38 10 43 2 43 2 38"></polyline>
                <polyline id="Path" stroke-linecap="square" points="42 38 42 43 34 43 34 38"></polyline>
                <path d="M38,26 L34.456,15.368 C34.1838561,14.5509145 33.4192148,13.9997926 32.558,14 L11.442,14 C10.5800492,13.9989307 9.81437601,14.5502154 9.542,15.368 L6,26" id="Path"></path>
                <path d="M42,38 L2,38 L2,30.828 C2.00011327,30.2976104 2.21090125,29.7889855 2.586,29.414 L6,26 L38,26 L41.414,29.414 C41.7890987,29.7889855 41.9998867,30.2976104 42,30.828 L42,38 Z" id="Path" stroke-linecap="square"></path>
                <polyline id="Path" points="0 10 22 0 44 10"></polyline>
                <path d="M8,32 L12,32" id="Path" stroke-linecap="square"></path>
                <path d="M32,32 L36,32" id="Path" stroke-linecap="square"></path>
            </g>
        </g>
    </g>
</svg>