<?xml version="1.0" encoding="UTF-8"?>
<svg width="26px" height="29px" viewBox="0 0 26 29" version="1.1" xmlns="http://www.w3.org/2000/svg" xmlns:xlink="http://www.w3.org/1999/xlink">
    <!-- Generator: Sketch 52.6 (67491) - http://www.bohemiancoding.com/sketch -->
    <title>icon-large-person</title>
    <desc>Created with Sketch.</desc>
    <g id="Design" stroke="none" stroke-width="1" fill="none" fill-rule="evenodd">
        <g id="JUM---sluzbenik---izbor-role" transform="translate(-597.000000, -190.000000)" stroke="#000000" stroke-width="2">
            <g id="icon-large-person" transform="translate(598.000000, 191.000000)">
                <path d="M24,22.587 C24,20.903 22.955,19.399 21.371,18.827 C19.044,17.986 17.206,17 12,17 C6.794,17 4.956,17.986 2.629,18.827 C1.045,19.399 -1.8189894e-12,20.903 -1.8189894e-12,22.587 L-1.8189894e-12,27 L24,27 L24,22.587 Z" id="Path" stroke-linecap="square"></path>
                <path d="M15,22 L19,22" id="Path" stroke-linecap="square"></path>
                <path d="M12,16 C8.134,16 5,12.866 5,9 L5,7 C5,3.134 8.134,0 12,0 C15.866,0 19,3.134 19,7 L19,9 C19,12.866 15.866,16 12,16 Z" id="Path" stroke-linecap="square"></path>
                <path d="M4.038,7.212 C5.207,7.712 6.558,8 8,8 C10.621,8 12.941,7.05 14.4,5.589 C15.677,7.05 17.706,8 20,8" id="Path"></path>
            </g>
        </g>
    </g>
</svg>