<?xml version="1.0" encoding="UTF-8"?>
<svg width="23px" height="23px" viewBox="0 0 23 23" version="1.1" xmlns="http://www.w3.org/2000/svg" xmlns:xlink="http://www.w3.org/1999/xlink">
    <!-- Generator: Sketch 52.6 (67491) - http://www.bohemiancoding.com/sketch -->
    <title>badge copy</title>
    <desc>Created with Sketch.</desc>
    <g id="Design" stroke="none" stroke-width="1" fill="none" fill-rule="evenodd" stroke-linecap="square">
        <g id="JUM---korisnik---zahtjev-varijante---desktop" transform="translate(-305.000000, -306.000000)" stroke="#000000">
            <g id="badge-copy" transform="translate(305.000000, 306.000000)">
                <polyline id="Path" points="13.5 5.5 22.5 5.5 22.5 22.5 0.5 22.5 0.5 5.5 9.5 5.5"></polyline>
                <path d="M13.4,7.5 L9.4,7.5 L9.4,2.5 C9.4,1.3955 10.2955,0.5 11.4,0.5 C12.5045,0.5 13.4,1.3955 13.4,2.5 L13.4,7.5 Z" id="Path"></path>
                <path d="M14,12.75 L18.5,12.75" id="Path"></path>
                <path d="M14,16.75 L18.5,16.75" id="Path"></path>
                <path d="M11,18.5 L4,18.5 C4,16.843 5.343,15.5 7,15.5 L8,15.5 C9.657,15.5 11,16.843 11,18.5 Z" id="Path"></path>
                <circle id="Oval" cx="7.5" cy="12" r="2"></circle>
            </g>
        </g>
    </g>
</svg>