<?xml version="1.0" encoding="utf-8"?>
<!-- Generator: Adobe Illustrator 23.0.2, SVG Export Plug-In . SVG Version: 6.00 Build 0)  -->
<svg version="1.1" id="Layer_1" xmlns="http://www.w3.org/2000/svg" xmlns:xlink="http://www.w3.org/1999/xlink" x="0px" y="0px"
	 width="46px" height="46px" viewBox="0 0 46 46" style="enable-background:new 0 0 46 46;" xml:space="preserve">
<style type="text/css">
	.st0{opacity:0.8;}
	.st1{fill:none;stroke:#000000;stroke-width:2;stroke-linecap:square;}
</style>
<title>icon-large-badge</title>
<desc>Created with Sketch.</desc>
<g id="Design" class="st0">
	<g id="JUM---sluzbenik---lista-usluga---desktop" transform="translate(-183.000000, -251.000000)">
		<g id="icon-large-badge" transform="translate(184.000000, 252.000000)">
			<polyline id="Path" class="st1" points="26,10 44,10 44,44 0,44 0,10 18,10 			"/>
			<path class="st1" d="M26,14h-8V4c0-2.2,1.8-4,4-4s4,1.8,4,4V14z"/>
			<path class="st1" d="M28,25.5h9"/>
			<path class="st1" d="M28,33.5h9"/>
			<path class="st1" d="M22,37H8c0-3.3,2.7-6,6-6h2C19.3,31,22,33.7,22,37z"/>
			<circle id="Oval" class="st1" cx="15" cy="24" r="4"/>
		</g>
	</g>
</g>
</svg>
