<?xml version="1.0" encoding="UTF-8"?>
<svg width="16px" height="16px" viewBox="0 0 16 16" version="1.1" xmlns="http://www.w3.org/2000/svg" xmlns:xlink="http://www.w3.org/1999/xlink">
    <!-- Generator: Sketch 53.2 (72643) - https://sketchapp.com -->
    <title>shuffle-98</title>
    <desc>Created with Sketch.</desc>
    <g id="Design---promjena-imena" stroke="none" stroke-width="1" fill="none" fill-rule="evenodd" stroke-linecap="round" stroke-linejoin="round">
        <g id="JUM---koordinator---lista-zahtjeva---desktop" transform="translate(-1060.000000, -358.000000)" stroke="#444444">
            <g id="Group-5" transform="translate(1054.000000, 354.000000)">
                <g id="shuffle-98" transform="translate(6.000000, 4.000000)">
                    <path d="M0.5,12.5 L0.704,12.5 C1.847,12.5 2.935,12.011 3.694,11.157 L9.307,4.842 C10.066,3.988 11.154,3.499 12.297,3.499 L15.5,3.499" id="Path"></path>
                    <polyline id="Path" points="12.5 0.5 15.5 3.5 12.5 6.5"></polyline>
                    <path d="M8.278,10 L9.307,11.157 C10.066,12.011 11.154,12.5 12.297,12.5 L15.5,12.5" id="Path"></path>
                    <path d="M0.5,3.5 L0.704,3.5 C1.847,3.5 2.935,3.989 3.694,4.843 L4.722,6" id="Path"></path>
                    <polyline id="Path" points="12.5 15.5 15.5 12.5 12.5 9.5"></polyline>
                </g>
            </g>
        </g>
    </g>
</svg>